<svg width="400" height="600" viewBox="0 0 400 600" fill="none" xmlns="http://www.w3.org/2000/svg">
  <!-- Background gradient -->
  <defs>
    <linearGradient id="grad1" x1="0%" y1="0%" x2="100%" y2="100%">
      <stop offset="0%" style="stop-color:#FF2D55;stop-opacity:1" />
      <stop offset="100%" style="stop-color:#8B5CF6;stop-opacity:1" />
    </linearGradient>
  </defs>
  
  <!-- Background -->
  <rect width="400" height="600" fill="url(#grad1)"/>
  
  <!-- Book icon -->
  <g transform="translate(150, 220)">
    <path d="M50 0C22.386 0 0 22.386 0 50v80c0 27.614 22.386 50 50 50s50-22.386 50-50V50c0-27.614-22.386-50-50-50zm30 130c0 16.569-13.431 30-30 30s-30-13.431-30-30V50c0-16.569 13.431-30 30-30s30 13.431 30 30v80z" fill="white" opacity="0.3"/>
    <rect x="35" y="40" width="30" height="4" rx="2" fill="white" opacity="0.5"/>
    <rect x="35" y="60" width="30" height="4" rx="2" fill="white" opacity="0.5"/>
    <rect x="35" y="80" width="30" height="4" rx="2" fill="white" opacity="0.5"/>
    <rect x="35" y="100" width="20" height="4" rx="2" fill="white" opacity="0.5"/>
  </g>
  
  <!-- Text -->
  <text x="200" y="420" font-family="Arial, sans-serif" font-size="24" font-weight="bold" fill="white" text-anchor="middle" opacity="0.9">
    Sem Capa
  </text>
  <text x="200" y="450" font-family="Arial, sans-serif" font-size="16" fill="white" text-anchor="middle" opacity="0.7">
    Imagem não disponível
  </text>
</svg>
